<?xml version="1.0" encoding="UTF-8" standalone="no"?>
<!-- Created with Inkscape (http://www.inkscape.org/) -->

<svg
   xmlns:dc="http://purl.org/dc/elements/1.1/"
   xmlns:cc="http://creativecommons.org/ns#"
   xmlns:rdf="http://www.w3.org/1999/02/22-rdf-syntax-ns#"
   xmlns:svg="http://www.w3.org/2000/svg"
   xmlns="http://www.w3.org/2000/svg"
   xmlns:sodipodi="http://sodipodi.sourceforge.net/DTD/sodipodi-0.dtd"
   xmlns:inkscape="http://www.inkscape.org/namespaces/inkscape"
   version="1.1"
   id="svg2"
   xml:space="preserve"
   width="1920.7867"
   height="775.66669"
   viewBox="0 0 1920.7867 775.66669"
   sodipodi:docname="Logo.svg"
   inkscape:version="0.92.3 (2405546, 2018-03-11)"><metadata
     id="metadata8"><rdf:RDF><cc:Work
         rdf:about=""><dc:format>image/svg+xml</dc:format><dc:type
           rdf:resource="http://purl.org/dc/dcmitype/StillImage" /><dc:title></dc:title></cc:Work></rdf:RDF></metadata><defs
     id="defs6" /><sodipodi:namedview
     pagecolor="#ffffff"
     bordercolor="#666666"
     borderopacity="1"
     objecttolerance="10"
     gridtolerance="10"
     guidetolerance="10"
     inkscape:pageopacity="0"
     inkscape:pageshadow="2"
     inkscape:window-width="3840"
     inkscape:window-height="2096"
     id="namedview4"
     showgrid="false"
     inkscape:zoom="0.91420872"
     inkscape:cx="1560.194"
     inkscape:cy="111.77673"
     inkscape:window-x="2560"
     inkscape:window-y="27"
     inkscape:window-maximized="1"
     inkscape:current-layer="g12" /><g
     id="g10"
     inkscape:groupmode="layer"
     inkscape:label="ink_ext_XXXXXX"
     transform="matrix(1.3333333,0,0,-1.3333333,0,775.66667)"><g
       id="g12"
       transform="scale(0.1)"><path
         d="m 63.2969,1239.82 c -6.6914,-19.96 -9.668,-36.18 -8.8321,-48.65 0.7969,-12.5 6.836,-22.23 18.1055,-29.25 11.2188,-7.07 28.4647,-11.85 51.6877,-14.3 23.219,-2.5 53.863,-3.76 91.98,-3.76 h 61.258 c 34.051,0 60.938,0.34 80.688,1.02 19.738,0.68 35.156,1.7 46.285,3.05 11.125,1.36 19.109,2.85 23.949,4.44 4.84,1.56 8.855,3.05 12.027,4.41 L 186.73,1352.17 c -25.554,-1.85 -48.894,-10.12 -69.937,-24.86 -21.0391,-14.75 -36.9024,-38.02 -47.5625,-69.77 z M 199.137,1094.84 c -46.731,0 -84.469,2.17 -113.2073,6.47 -28.7383,4.33 -50.0547,11.79 -63.9219,22.49 -13.91796,10.62 -21.210925,25.05 -21.929675,43.21 -0.730469,18.13 3.613285,41.27 13.058575,69.42 l 7.293,21.79 c 7.0039,20.87 15.7969,38.9 26.3516,54.11 10.5156,15.18 22.2031,28.02 35,38.46 12.8085,10.43 26.4687,18.73 41.0157,24.83 14.531,6.14 29.508,10.57 44.953,13.28 -2.27,2.74 -4.176,5.56 -5.664,8.54 -1.512,2.92 -2.57,6.54 -3.156,10.88 -0.586,4.3 -0.352,9.73 0.707,16.3 1.082,6.6 3.285,14.87 6.636,24.87 14.297,42.65 40.692,72.95 79.172,90.9 38.434,17.89 91.489,26.87 159.114,26.87 h 72.14 c 40.387,0 72.18,-3.31 95.371,-9.89 23.207,-6.57 40.09,-15.76 50.668,-27.55 10.555,-11.79 15.746,-26.09 15.563,-42.89 -0.184,-16.81 -3.77,-35.64 -10.774,-56.52 h -49.703 c 10.043,29.96 6.117,52.11 -11.765,66.38 -17.899,14.3 -52.481,21.44 -103.778,21.44 h -75.554 c -27.684,0 -51.387,-1.35 -71.137,-4.07 -19.75,-2.73 -36.277,-7.07 -49.598,-12.94 -13.332,-5.89 -23.926,-13.17 -31.804,-21.78 -7.907,-8.61 -13.801,-18.84 -17.766,-30.63 -3.039,-9.08 -4.672,-16.67 -4.918,-22.78 -0.238,-6.16 0.949,-11.71 3.574,-16.7 2.66,-5.01 6.793,-9.88 12.469,-14.63 5.664,-4.78 12.641,-10.34 20.937,-16.7 L 501.34,1190.15 c 8.023,6.34 16.476,13.28 25.32,20.77 8.887,7.48 17.285,15.65 25.258,24.47 7.957,8.87 15.273,18.16 21.941,27.94 6.692,9.73 12.079,20.07 16.176,30.97 h 49.024 c -5.336,-15.91 -12.301,-30.52 -20.86,-43.91 -8.586,-13.38 -17.676,-25.65 -27.304,-36.76 -9.653,-11.12 -19.305,-21 -29,-29.61 -9.704,-8.64 -18.547,-16.13 -26.571,-22.47 l 36.473,-27.21 -44.797,-44.27 -45.539,34.75 c -5.297,-3.66 -12.305,-7.28 -21.004,-10.91 -8.715,-3.65 -21.238,-6.81 -37.598,-9.55 -16.332,-2.71 -37.281,-4.98 -62.851,-6.78 -25.555,-1.83 -58.074,-2.74 -97.551,-2.74 h -63.32"
         style="fill:#100f0d;fill-opacity:1;fill-rule:nonzero;stroke:none"
         id="path14"
         inkscape:connector-curvature="0" /><path
         d="m 1170.31,1567.26 h 49.02 L 1060.9,1094.84 h -49.02 l 158.43,472.42"
         style="fill:#100f0d;fill-opacity:1;fill-rule:nonzero;stroke:none"
         id="path16"
         inkscape:connector-curvature="0" /><path
         d="m 1434.4,1567.26 222.18,-423.4 142.01,423.4 h 49 l -158.43,-472.42 h -70.79 l -229.2,434.98 h -26.53 l -145.88,-434.98 h -49.02 l 158.43,472.42 h 108.23"
         style="fill:#100f0d;fill-opacity:1;fill-rule:nonzero;stroke:none"
         id="path18"
         inkscape:connector-curvature="0" /><path
         d="m 2390,1518.23 h -230.75 l -141.98,-423.39 h -49.02 l 141.98,423.39 h -230.74 l 16.45,49.03 h 510.51 L 2390,1518.23"
         style="fill:#100f0d;fill-opacity:1;fill-rule:nonzero;stroke:none"
         id="path20"
         inkscape:connector-curvature="0" /><path
         d="m 2879.52,1567.26 -16.45,-49.03 h -370.98 l -52.05,-155.18 h 359.39 l -16.42,-49.02 h -359.4 l -57.08,-170.17 h 370.98 l -16.43,-49.02 h -420 l 158.43,472.42 h 420.01"
         style="fill:#100f0d;fill-opacity:1;fill-rule:nonzero;stroke:none"
         id="path22"
         inkscape:connector-curvature="0" /><path
         d="m 2881.55,1354.18 c 14.61,43.6 30.16,79.44 46.64,107.57 16.45,28.12 35.94,50.38 58.43,66.71 22.51,16.31 49,27.68 79.48,34.02 30.49,6.37 66.86,9.53 109.05,9.53 h 161.34 c 57.61,0 96.85,-10.88 117.69,-32.67 20.82,-21.78 23.55,-55.6 8.17,-101.41 h -49 c 3.96,13.15 5.81,25.07 5.52,35.74 -0.29,10.65 -3.85,19.6 -10.72,26.88 -6.86,7.25 -17.5,12.81 -31.86,16.67 -14.36,3.86 -33.09,5.79 -56.24,5.79 h -168.12 c -33.61,0 -61.75,-2.06 -84.43,-6.13 -22.71,-4.1 -42.19,-12.16 -58.48,-24.16 -16.3,-12.03 -30.41,-29.04 -42.31,-51.06 -11.92,-22.02 -23.88,-50.93 -35.9,-86.78 l -14.61,-43.57 c -12.33,-36.76 -20.26,-66.14 -23.78,-88.16 -3.55,-22.02 -1.72,-38.9 5.47,-50.69 7.14,-11.82 20.05,-19.65 38.74,-23.48 18.67,-3.86 43.87,-5.79 75.65,-5.79 h 180.39 c 23.58,0 43.46,1.46 59.67,4.43 16.2,2.92 30.24,8.95 42.13,18.03 11.89,9.08 22.41,21.89 31.64,38.46 9.17,16.54 18.31,38.43 27.44,65.67 h -231.42 l 16.44,49.02 h 284.51 c -15.22,-45.37 -29.74,-82.6 -43.54,-111.64 -13.84,-29.04 -29.65,-51.84 -47.47,-68.41 -17.8,-16.57 -39.01,-28.02 -63.61,-34.39 -24.59,-6.34 -55.23,-9.52 -91.99,-9.52 h -174.94 c -40.86,0 -73.69,2.95 -98.48,8.87 -24.78,5.87 -42.36,16.78 -52.68,32.67 -10.31,15.88 -13.85,37.88 -10.51,66.03 3.3,28.13 12.39,64.44 27.32,108.9 l 14.37,42.87"
         style="fill:#100f0d;fill-opacity:1;fill-rule:nonzero;stroke:none"
         id="path24"
         inkscape:connector-curvature="0" /><path
         d="m 3860.67,1367.12 c 37.21,0 65.33,6.37 84.34,19.07 18.99,12.68 32.47,30.84 40.37,54.45 7.47,22.23 6.1,40.18 -4.08,53.77 -10.17,13.6 -32.75,20.43 -67.69,20.43 h -309.72 l -49.54,-147.72 z m 158.11,36.08 c -6.16,-10.9 -12.44,-19.85 -18.88,-26.87 -6.45,-7.05 -13.05,-12.5 -19.77,-16.36 -6.76,-3.86 -13.46,-6.91 -20.12,-9.18 7.27,-1.36 14.2,-4.41 20.76,-9.19 6.57,-4.75 11.57,-11.82 15.05,-21.1 3.43,-9.32 4.96,-21.01 4.58,-35.07 -0.42,-14.06 -4.04,-31.31 -10.88,-51.71 l -46.57,-138.88 h -53.1 l 46.34,138.17 c 5.02,15.01 7.8,27.69 8.35,38.12 0.55,10.46 -1.98,18.84 -7.55,25.21 -5.59,6.34 -14.5,10.9 -26.73,13.62 -12.27,2.71 -28.58,4.07 -49.01,4.07 h -324.7 l -73.51,-219.19 h -49.67 l 158.43,472.42 h 346.45 c 55.84,0 92.94,-10.12 111.35,-30.29 18.41,-20.22 20.61,-51.19 6.61,-92.91 -5.48,-16.36 -11.3,-29.95 -17.43,-40.86"
         style="fill:#100f0d;fill-opacity:1;fill-rule:nonzero;stroke:none"
         id="path26"
         inkscape:connector-curvature="0" /><path
         d="m 4173.77,1257.54 h 284.54 l -50.04,274.99 z m 284.27,309.72 86.61,-472.42 h -57.17 l -20.43,113.7 H 4130.8 l -96.67,-113.7 h -55.12 l 403.47,472.42 h 75.56"
         style="fill:#100f0d;fill-opacity:1;fill-rule:nonzero;stroke:none"
         id="path28"
         inkscape:connector-curvature="0" /><path
         d="m 5090.27,1518.23 h -230.74 l -141.98,-423.39 h -49.03 l 141.99,423.39 h -230.75 l 16.45,49.03 h 510.51 l -16.45,-49.03"
         style="fill:#100f0d;fill-opacity:1;fill-rule:nonzero;stroke:none"
         id="path30"
         inkscape:connector-curvature="0" /><path
         d="m 5188.41,1567.26 h 49.03 L 5079,1094.84 h -49.02 l 158.43,472.42"
         style="fill:#100f0d;fill-opacity:1;fill-rule:nonzero;stroke:none"
         id="path32"
         inkscape:connector-curvature="0" /><path
         d="m 5771.77,1352.17 c 8.52,25.39 15.04,47.17 19.54,65.33 4.49,18.13 6.55,33.45 6.22,45.94 -0.36,12.48 -3.61,22.47 -9.7,29.96 -6.14,7.46 -15.58,13.17 -28.33,17.01 -12.79,3.83 -29.16,6.47 -49.11,7.82 -19.97,1.36 -44.03,2.07 -72.15,2.07 h -74.2 c -42.66,0 -77.11,-1.62 -103.36,-4.78 -26.24,-3.18 -47.89,-10.54 -64.94,-22.12 -17.04,-11.59 -31.24,-28.49 -42.53,-50.7 -11.32,-22.25 -23.36,-52.41 -36.15,-90.53 l -13.69,-40.86 c -12.64,-37.67 -20.72,-67.49 -24.24,-89.51 -3.55,-22.02 -0.64,-38.8 8.62,-50.36 9.3,-11.58 26,-18.97 50.11,-22.15 24.12,-3.16 57.5,-4.75 100.16,-4.75 h 74.2 c 42.66,0 77.01,1.59 103,4.75 26.04,3.18 47.57,10.57 64.62,22.15 17.04,11.56 31.16,28.34 42.41,50.36 11.24,22.02 23.18,51.84 35.82,89.51 z m -469.07,-248.8 c -29.17,5.66 -49.84,16.44 -61.96,32.33 -12.16,15.86 -16.7,37.88 -13.61,66.01 3.08,28.15 12.17,64.67 27.24,109.6 l 13.7,40.86 c 15.06,44.9 30.5,81.53 46.38,109.92 15.85,28.33 35.23,50.59 58.12,66.71 22.86,16.1 50.8,26.98 83.78,32.67 32.98,5.66 74.45,8.5 124.36,8.5 h 74.88 c 49.46,0 88.66,-2.84 117.63,-8.5 28.96,-5.69 49.46,-16.57 61.54,-32.67 12.04,-16.12 16.52,-38.38 13.35,-66.71 -3.16,-28.39 -12.25,-65.02 -27.32,-109.92 l -13.7,-40.86 c -15.06,-44.93 -30.5,-81.45 -46.31,-109.6 -15.77,-28.13 -35.08,-50.15 -57.85,-66.01 -22.82,-15.89 -50.59,-26.67 -83.36,-32.33 -32.77,-5.71 -73.86,-8.53 -123.33,-8.53 h -74.88 c -49.91,0 -89.49,2.82 -118.66,8.53"
         style="fill:#100f0d;fill-opacity:1;fill-rule:nonzero;stroke:none"
         id="path34"
         inkscape:connector-curvature="0" /><path
         d="m 6069.2,1567.26 222.18,-423.4 142.01,423.4 h 49 l -158.43,-472.42 h -70.79 l -229.2,434.98 h -26.53 l -145.88,-434.98 h -49.02 l 158.43,472.42 h 108.23"
         style="fill:#100f0d;fill-opacity:1;fill-rule:nonzero;stroke:none"
         id="path36"
         inkscape:connector-curvature="0" /><path
         d="m 2667.38,4017.94 v 0 c 35.44,101.89 -85.68,106.31 -99.29,106.31 H 1476.27 l -248.23,-740.14 -2.99,-8.08 12.52,-0.1 h 1010.04 c 27.2,0 63.15,5.43 107.7,16.36 44.55,10.86 109.28,28.46 128.3,77.7 z m 449.81,0 -187.89,-560.22 c -37.24,-128.26 -190.86,-277.42 -282.14,-346.44 -87.99,-66.53 -208.73,-119.73 -458.95,-119.73 v 0 H 654.762 l 508.798,1517.09 h 441.62 1063.2 c 0,0 191.84,-5.44 289.5,-75.64 51.62,-37.1 97.5,-72.98 133.3,-132.91 35.73,-59.99 53.57,-189.72 26.01,-282.15 v 0"
         style="fill:#100f0d;fill-opacity:1;fill-rule:nonzero;stroke:none"
         id="path38"
         inkscape:connector-curvature="0" /><path
         d="M 4013.74,4553.63 3489.86,2991.55 h -494.8 l 523.89,1562.08 h 494.79"
         style="fill:#100f0d;fill-opacity:1;fill-rule:nonzero;stroke:none"
         id="path40"
         inkscape:connector-curvature="0" /><path
         d="m 6398.98,4508.64 -128.92,-384.39 h -1582.5 c -78.96,0 -170.24,-68.99 -178.78,-106.31 v 0 l -183.77,-547.95 c -32.56,-91.55 153.81,-94.06 181.09,-94.06 h 1042.75 l 63.08,188.1 h -576.85 l -165.55,359.85 H 6202.86 L 5890.18,2991.55 H 4307.67 v 0 c -193.33,0 -310.15,81.08 -369.11,136.98 -58.96,55.85 -118.1,214.29 -79.74,329.19 l 187.89,560.22 v 0 c 36.46,101.89 144.01,222.16 221.37,282.15 77.36,59.93 153.57,104.27 228.59,132.91 75.04,28.62 212.11,75.64 348.42,75.64 v 0 h 1553.89"
         style="fill:#100f0d;fill-opacity:1;fill-rule:nonzero;stroke:none"
         id="path42"
         inkscape:connector-curvature="0" /><path
         d="M 7148.42,4553.63 6624.54,2991.55 h -494.8 l 523.88,1562.08 h 494.8"
         style="fill:#100f0d;fill-opacity:1;fill-rule:nonzero;stroke:none"
         id="path44"
         inkscape:connector-curvature="0" /><path
         d="m 9461.44,4242.85 h -776.95 l -419.65,-1251.3 h -658.39 l 419.66,1251.3 h -756.48 l 105.6,314.87 h 2191.81 l -105.6,-314.87"
         style="fill:#100f0d;fill-opacity:1;fill-rule:nonzero;stroke:none"
         id="path46"
         inkscape:connector-curvature="0" /><path
         d="m 10447,4475.92 523.1,-1488.46 h -507 l -74.5,228.99 H 9322.96 l 338.68,327.14 h 624.06 l -214.2,568.4 L 8909.18,2987.46 H 8430.77 L 9939.99,4475.92 H 10447"
         style="fill:#100f0d;fill-opacity:1;fill-rule:nonzero;stroke:none"
         id="path48"
         inkscape:connector-curvature="0" /><path
         d="m 11762.5,4484.1 -331.9,-989.58 c -22.1,-53.74 13,-139.03 123.2,-139.03 h 1277.8 l 135.5,-363.94 H 11405 v 0 c -177.4,0 -325.2,96.71 -377.8,155.35 -52.5,58.61 -100.1,193.7 -62.8,310.82 v 0 l 331.9,1026.38 h 466.2"
         style="fill:#100f0d;fill-opacity:1;fill-rule:nonzero;stroke:none"
         id="path50"
         inkscape:connector-curvature="0" /><path
         d="m 893.934,2530.74 c -15.942,0 -35.688,-5.49 -59.2,-16.4 -23.562,-10.96 -38.316,-25.35 -44.316,-43.24 -7.348,-21.91 -6.223,-40.78 3.355,-56.67 9.579,-15.94 27.282,-23.87 53.149,-23.87 h 847.088 c 54.8,0 95.35,-32.81 123.13,-68.6 27.76,-35.8 41.9,-91.48 42.42,-167.03 -0.07,-35.8 -5.46,-69.63 -16.11,-101.41 -29.36,-87.53 -101.32,-170.65 -184.81,-242.45 -85.42,-73.46 -185.34,-109.51 -279.22,-109.51 H 177.387 l 310.761,277.39 h 876.922 c 75.59,11.93 120.39,38.78 134.39,80.54 6,17.89 -8.91,56.66 -34.56,56.66 H 581.078 c -71.246,0 -141.308,115.82 -157.43,168.52 -16.164,52.67 -13.636,129.88 24.829,225.2 27.961,69.3 94.492,151.11 199.39,211.79 104.817,60.63 227.094,104.38 345.106,104.38 H 2084.64 l -316.78,-295.3 H 893.934"
         style="fill:#100f0d;fill-opacity:1;fill-rule:nonzero;stroke:none"
         id="path52"
         inkscape:connector-curvature="0" /><path
         d="m 3966.66,2808.14 -112.04,-334.06 v 0 c -34.16,-108.64 -214.5,-357.93 -597.27,-357.93 h -238.6 L 2878.7,1698.58 h -363.89 l 140.05,417.57 h -226.7 c -240.61,0 -395.48,191.41 -359.19,351.97 L 2186,2817.08 h 351.97 l -110.11,-328.07 c -12.25,-45.65 50.09,-98.45 104.26,-98.45 h 817.26 c 85.92,0 120.98,63.38 134.34,98.45 l 107.12,319.13 h 375.82"
         style="fill:#100f0d;fill-opacity:1;fill-rule:nonzero;stroke:none"
         id="path54"
         inkscape:connector-curvature="0" /><path
         d="m 7416.2,2617.26 h -566.71 l -306.1,-912.72 h -480.22 l 306.1,912.72 H 5817.5 l 77.02,229.65 h 1598.7 l -77.02,-229.65"
         style="fill:#100f0d;fill-opacity:1;fill-rule:nonzero;stroke:none"
         id="path56"
         inkscape:connector-curvature="0" /><path
         d="M 8896.72,1713.49 H 7781.18 c -117.33,0 -224.86,12.98 -296.65,49.21 -77.61,39.16 -179.79,166.37 -142.1,278.88 v 0 l 126.04,375.83 c 23.33,69.58 66.53,131.7 129.6,186.41 63.09,54.67 132.9,96.95 209.58,126.76 76.58,29.84 144.04,45.73 202.42,47.74 h 1231.84 l -290.83,-262.48 h -942.55 c -53.7,0 -163.33,-1.79 -201.32,-136.21 l 0.2,-0.99 h 718.84 l -94.03,-280.38 h -718.84 v 0 c -23.47,-69 -70.23,-122.29 69.34,-122.29 h 978.32 l 135.68,-262.48"
         style="fill:#100f0d;fill-opacity:1;fill-rule:nonzero;stroke:none"
         id="path58"
         inkscape:connector-curvature="0" /><path
         d="m 11140,2834.99 -376.1,-1121.5 h -307.2 l 266.1,793.4 v 0 c -221,-52.95 -345.7,-112.51 -589.4,-387.76 v 0 h -272.77 v 0 c -21.15,106.05 -82.38,350.95 -310.06,387.76 v 0 l -269.09,-802.35 h -316.17 l 379.12,1130.45 h 122.31 c 260.3,0 464.47,-93.29 647.06,-337.08 l 7.3,-8.92 11.4,9.64 c 207,224.87 583.1,336.36 885.2,336.36 h 122.3"
         style="fill:#100f0d;fill-opacity:1;fill-rule:nonzero;stroke:none"
         id="path60"
         inkscape:connector-curvature="0" /><path
         d="m 4480.63,2530.74 c -15.94,0 -35.69,-5.49 -59.2,-16.4 -23.56,-10.96 -38.32,-25.35 -44.32,-43.24 -7.34,-21.91 -6.22,-40.78 3.36,-56.67 9.58,-15.94 27.28,-23.87 53.15,-23.87 h 847.09 c 54.8,0 95.34,-32.81 123.13,-68.6 27.75,-35.8 41.89,-91.48 42.42,-167.03 -0.08,-35.8 -5.46,-69.63 -16.12,-101.41 -29.35,-87.53 -101.31,-170.65 -184.8,-242.45 -85.43,-73.46 -185.34,-109.51 -279.22,-109.51 H 3764.08 l 310.77,277.39 h 876.92 c 75.58,11.93 120.38,38.78 134.39,80.54 6,17.89 -8.91,56.66 -34.56,56.66 h -883.83 c -71.24,0 -141.3,115.82 -157.42,168.52 -16.17,52.67 -13.64,129.88 24.82,225.2 27.96,69.3 94.5,151.11 199.4,211.79 104.81,60.63 227.09,104.38 345.1,104.38 h 1091.67 l -316.79,-295.3 h -873.92"
         style="fill:#100f0d;fill-opacity:1;fill-rule:nonzero;stroke:none"
         id="path62"
         inkscape:connector-curvature="0" /><path
         d="m 11634,2530.74 c -16,0 -35.7,-5.49 -59.2,-16.4 -23.6,-10.96 -38.3,-25.35 -44.3,-43.24 -7.4,-21.91 -6.3,-40.78 3.3,-56.67 9.6,-15.94 27.3,-23.87 53.2,-23.87 h 847.1 c 54.8,0 95.3,-32.81 123.1,-68.6 27.8,-35.8 41.9,-91.48 42.4,-167.03 -0.1,-35.8 -5.4,-69.63 -16.1,-101.41 -29.4,-87.53 -101.3,-170.65 -184.8,-242.45 -85.4,-73.46 -185.3,-109.51 -279.2,-109.51 h -1202.1 l 310.8,277.39 h 876.9 c 75.6,11.93 120.4,38.78 134.4,80.54 6,17.89 -8.9,56.66 -34.5,56.66 h -883.9 c -71.2,0 -141.3,115.82 -157.4,168.52 -16.2,52.67 -13.6,129.88 24.8,225.2 28,69.3 94.5,151.11 199.4,211.79 104.8,60.63 227.1,104.38 345.1,104.38 h 1091.7 l -316.8,-295.3 H 11634"
         style="fill:#100f0d;fill-opacity:1;fill-rule:nonzero;stroke:none"
         id="path64"
         inkscape:connector-curvature="0" /><path
         d="m 12873.7,2597.71 c 51.7,-76.87 109.7,-149.49 165.1,-223.81 1.5,-1.91 4.9,-2.33 13,-5.99 -11.1,19.34 -19.4,34.05 -28,48.56 -38.3,64.37 -78.7,127.6 -114.3,193.37 -22.6,41.62 -42.4,84.78 -61.7,128.13 l -38,-35.37 c 20,-35.83 41.1,-71 63.9,-104.89"
         style="fill:#100f0d;fill-opacity:1;fill-rule:nonzero;stroke:none"
         id="path66"
         inkscape:connector-curvature="0" /><path
         d="m 14035.9,2340.02 c -34.5,-93.01 -69.6,-186.2 -111.8,-275.86 -32.1,-68.22 -70.7,-134.62 -115.1,-195.5 -62.5,-85.78 -132.7,-165.48 -215.6,-233.9 -70.4,-58.11 -143,-112.29 -226.2,-149.34 -61.2,-27.24 -124.6,-50.91 -188.9,-69.47 -94.6,-27.27 -191.6,-39.86 -290.7,-29.92 64.3,138.99 131.7,275.09 190.7,414.75 57.9,137.31 107.3,278.23 160,416.41 27.9,-11.23 55.2,-22.8 82.8,-33.23 64.8,-24.42 130.2,-46.13 201.1,-41.45 14.7,0.98 29.9,-2.18 44.4,0.09 49.5,7.77 99.7,13.91 147.9,26.94 33.9,9.16 64.6,29.43 97.7,42.47 5.6,2.19 21.5,-5.89 22.7,-11.42 9.8,-44.57 17.2,-89.67 25.4,-134.59 2.5,-13.48 5.4,-26.89 8.1,-40.33 4.1,11.55 3.9,22.33 2.3,32.92 -7.5,51.09 -15,102.2 -23.5,153.12 -2.6,15.39 -0.6,25.22 13.6,34.9 22.7,15.54 46.2,31.91 64,52.52 51.5,59.43 100.3,121.16 149.6,181.3 -12,-44.73 -21.2,-94.05 -38.5,-140.41 z m -824.1,-1326.74 c -237.5,-140.042 -493.5,-224.6 -778,-242.35 22.8,24.34 40.4,41.429 56.1,60.129 55,65.621 111,130.601 163.5,198.171 36.7,47.11 68.9,97.69 102.1,147.43 27.3,40.95 52.4,83.34 80.1,124.06 4.4,6.48 17.1,11.12 25.6,10.45 79.4,-6.34 159.2,-22.58 238.2,-19.47 154.4,6.06 304.8,37.97 443.7,110.22 46.2,24.04 91.3,50.56 135,78.92 41.2,26.73 79.8,57.37 119.6,86.29 -153.2,-228.94 -349,-414.18 -585.9,-553.85 z m 46.2,1287.33 c 10.3,25.1 18.9,51.08 26.3,77.21 14.5,50.88 27.8,102.1 41.3,153.26 25.9,98.14 52.6,196.09 77,294.6 17.5,70.92 32.6,142.48 47.4,214.04 18.7,89.83 36.1,179.93 53.7,269.97 6.6,33.74 12.4,67.64 20.1,110 27.7,-78.43 53.9,-147.81 76.7,-218.28 26.4,-81.84 53.5,-163.77 74,-247.22 40.4,-165.04 76.3,-331.2 114.5,-496.79 9.2,-39.5 15.5,-70.63 -28.3,-101.98 -58.9,-42.13 -116.6,-83.81 -185.8,-106.06 -94.7,-30.47 -190.3,-29.71 -286.8,-6.38 -38.8,9.38 -45.6,20.04 -30.1,57.63 z m 202.6,1472.33 c -27.2,66.59 -56.5,132.33 -85.6,198.11 -23.5,53.3 -46.9,106.75 -72.6,159.01 -20.9,42.41 -45.4,83.03 -67.8,124.68 -22.8,42.2 -45,84.68 -70.8,133.23 38.4,-2.28 71.8,-0.99 103.9,-6.79 106.2,-19.21 202.5,-62.15 289.8,-126.23 34.9,-25.61 63.1,-50.52 40.3,-98.78 -3.5,-7.52 -1.1,-17.68 -2.2,-26.51 -5.4,-42.1 -10.3,-84.27 -16.7,-126.2 -10.6,-69.08 -21.9,-138.08 -33.7,-206.97 -8.9,-52.1 -19.1,-103.99 -28.7,-155.97 -2.8,-0.3 -5.6,-0.59 -8.4,-0.89 -2.6,5.98 -5.7,11.82 -7.8,17.97 -13.2,38.46 -24.4,77.75 -39.7,115.34 z m -116,-96.55 c -41.5,36.18 -82.1,73.43 -124.8,108.22 -59.4,48.49 -119.7,96.12 -180.9,142.32 -73.8,55.71 -148.8,110.03 -224,163.95 -25.9,18.63 -29.4,32.15 -10.6,57.58 36.3,49.2 72.2,98.75 111.3,152.32 -7.9,-4.41 -12.1,-5.57 -14.5,-8.28 -41.2,-45.14 -82.4,-90.32 -123.1,-135.88 -11.8,-13.2 -22.9,-25.77 -42.2,-13.5 -59.6,37.8 -118.3,76.87 -178.7,113.29 -58,35.02 -117.2,68.31 -176.8,100.58 -56.2,30.4 -113,59.72 -170.6,87.26 -79.8,38.1 -160.2,74.92 -241,110.71 -52.9,23.44 -107.1,44.09 -164.5,67.57 19.7,20.98 35,40.46 53.5,56.3 50,42.91 101,84.81 152.3,126.12 66.7,53.67 140.7,94.73 221.7,122.71 19.7,6.8 40.6,10.98 59.3,19.73 82.9,38.67 171.6,45.28 260.7,48.36 10.7,0.37 23.5,-8.64 32.2,-16.64 18.9,-17.18 36.2,-36.23 53.5,-55.07 65.8,-71.68 134.6,-140.99 196.2,-216.15 60.6,-73.89 114.1,-153.58 170.1,-231.22 16.9,-23.53 31.6,-48.69 47.4,-73.15 -35.1,-22.4 -65.7,-41.95 -96.3,-61.5 1.3,-2.36 2.5,-4.72 3.7,-7.07 6.2,1.24 12.7,1.65 18.4,3.88 25.7,9.9 50.7,21.72 76.8,29.68 7.5,2.26 22.6,-3.45 26.7,-10.11 35,-57.29 68.8,-115.32 101.9,-173.79 18.9,-33.51 36,-68.05 53.3,-102.47 43.3,-86.42 87.8,-172.29 128.9,-259.79 33.1,-70.63 62.1,-143.22 92.3,-215.2 4.1,-9.8 4.6,-21.13 7.4,-35.08 -42.8,37.34 -81.2,70.85 -119.6,104.32 z m -1595,963.62 c -81.2,27.06 -161.8,55.84 -243.7,80.56 -70.8,21.37 -142.5,40.06 -214.6,56.4 -107.5,24.38 -215.7,46.14 -323.8,67.99 -43.1,8.73 -86.8,14.76 -136.5,23.06 25.2,24.28 43.7,46.24 66,63.04 90.7,68.09 180.4,137.76 274.4,200.82 95.6,64.01 201.7,109.43 309.4,148.71 135.8,49.52 277.7,74.85 420.2,97.75 73.4,11.78 138.8,3.39 200.1,-37.35 92.6,-61.6 185.1,-123.49 277.3,-185.73 15,-10.12 28.4,-22.7 45.2,-36.32 -9.8,-5.91 -15.1,-10.17 -21.1,-12.58 -59.6,-23.91 -119.9,-46.1 -178.7,-71.76 -31.5,-13.75 -63.3,-29.77 -90.1,-50.93 -73.3,-57.85 -147.1,-115.71 -214.6,-179.91 -48,-45.59 -87.2,-100.71 -128.2,-153.21 -13,-16.58 -25.2,-15.89 -41.3,-10.54 z m -76.3,939.13 c -93.9,25.41 -190.3,44.38 -286.8,57 -101.6,13.27 -204.6,18.47 -307.1,21.85 -66.4,2.19 -133,-5.22 -199.6,-8.33 -0.2,2.64 -0.4,5.27 -0.6,7.9 63,5.3 126.2,8.33 188.8,16.39 110.3,14.19 220.5,19.53 331.6,11.23 80.8,-6.05 162,-7.75 242.7,-15.15 67.8,-6.22 136,-13.76 202.5,-28.03 103.1,-22.14 205.9,-46.98 306.8,-77.27 90.3,-27.1 178.4,-61.93 266.5,-95.73 44.6,-17.11 87.2,-39.48 130.8,-59.47 -1.2,-1.88 -2.3,-3.76 -3.4,-5.64 -11.2,3.17 -22.3,7.08 -33.7,9.4 -57,11.57 -113.7,25.85 -171.3,33.28 -82.1,10.6 -164.7,17.97 -247.4,23.02 -48,2.95 -95.6,-3.62 -143.2,14.59 -91,34.78 -182.7,69.55 -276.6,94.96 z m 1368.1,-466.81 c -16.3,2.73 -32.9,3.96 -48.7,8.42 -121.1,34.3 -244.3,42.15 -369.2,30.14 -49.4,-4.74 -93.8,-14.93 -142.9,24.45 -97.7,78.26 -205.8,143.58 -304.1,210.54 305.2,-16.81 596.7,-106.15 866.7,-265.84 -0.6,-2.57 -1.2,-5.14 -1.8,-7.71 z m 233.1,-341.99 c 83.5,-51.28 155.5,-116.51 223.6,-186.21 30.2,-30.98 55.7,-67.32 88.5,-94.99 44.8,-37.64 52.3,-81.03 37,-133.02 -29,13.94 -57.2,27.3 -85.3,41.09 -72.8,35.79 -150.3,55.52 -230.8,55.86 -50.2,0.21 -100.3,-11.64 -150.6,-16.84 -9.3,-0.95 -22.4,0.97 -28.1,6.94 -12.6,13.27 -22,29.77 -32.3,45.27 -33.2,50.25 -62.5,103.64 -100,150.39 -80.8,100.49 -165.6,197.68 -249.1,296 -15.4,18.12 -32,35.19 -53.2,58.4 24.6,-1.47 40.8,-0.34 55.9,-3.73 60.7,-13.52 121.9,-25.37 181.1,-43.76 53.6,-16.62 106.8,-36.9 156.4,-62.88 64.3,-33.7 124.9,-74.45 186.9,-112.52 z m 371.5,-377.26 c 1.7,4.42 1.2,9.64 1.7,14.48 2.3,0.94 4.5,1.88 6.8,2.81 33.7,-48.77 67.5,-97.55 101.2,-146.32 -30.4,17.21 -55,41.65 -84.5,56.73 -35,17.93 -36.7,41.16 -25.2,72.3 z m 388.6,-1511.16 c -18.2,-67.23 -35.1,-135.04 -58,-200.72 -33.6,-96.4 -80.6,-186 -157.5,-266.27 -52.6,327.86 -124.4,644.82 -222.2,962.31 13.2,-10.42 21.6,-15.64 28.3,-22.56 62.2,-64.28 125.4,-127.55 185.6,-193.66 74.2,-81.6 146,-165.39 218,-249.05 5.9,-6.86 8.3,-21.03 5.8,-30.05 z m 9.9,61.98 c -2.7,-1.23 -5.3,-2.47 -7.9,-3.7 -23.7,28.01 -47.8,55.74 -71.1,84.11 -44.4,54.09 -86.3,110.46 -133.1,162.39 -76.9,85.47 -157.4,167.76 -235.5,252.28 -20.5,22.19 -36.6,46.57 -47,77.24 -10.4,31.13 1.8,56.64 4.7,84.17 7,68.72 17.4,137.09 26.2,205.64 10.2,80.16 20.4,160.34 30.3,240.54 5.9,48.24 11.3,96.55 17.7,150.25 175,-164.49 285.3,-359.78 352.7,-580.49 67.1,-219.89 93.5,-443.77 63,-672.43 z m -382.6,1905.54 c -595.5,658.88 -1348.6,984.75 -2235.6,967.38 -709.3,-13.88 -1334.4,-266.34 -1867.58,-736.74 1.2,-2.92 2.41,-5.84 3.61,-8.76 7.61,4.13 15.87,7.4 22.75,12.52 60.83,45.26 119.95,93.02 182.54,135.69 54.51,37.16 111.46,71.34 169.83,102.11 93.35,49.22 187.05,98.37 283.75,140.32 82.5,35.79 169,62.72 254.6,91.06 50.4,16.71 101.7,34.08 153.9,41.3 88.2,12.2 177.4,19.52 266.4,23.33 76.8,3.3 154.4,3.2 231,-3.25 100.1,-8.42 199.8,-23.1 299.3,-37.95 57.4,-8.57 114.9,-19.57 170.8,-35.18 77.6,-21.71 153.8,-48.67 230.5,-73.75 5.3,-1.73 9.6,-6.53 17.3,-11.96 -51,-10.33 -99.5,-18.53 -147.1,-30.2 -64.7,-15.84 -130.7,-29.11 -192.5,-52.83 -112.3,-43.1 -222.9,-91.6 -322.6,-160.68 -65.6,-45.45 -132.4,-89.51 -194.4,-139.61 -57.9,-46.9 -116.7,-95.66 -162.8,-153.46 -39.4,-49.49 -83.5,-40.1 -130.9,-36.78 -59.9,4.21 -119.5,11.82 -179.5,15.18 -99.4,5.59 -198.9,9.87 -298.5,12.77 -37.6,1.09 -75.3,-3.2 -113,-5.04 -104.79,-5.1 -209.61,-9.51 -314.33,-15.69 -35.38,-2.09 -70.49,-8.68 -105.72,-13.21 0.65,-2.18 1.3,-4.37 1.95,-6.56 15.78,1.17 31.53,3.03 47.33,3.39 115.57,2.59 231.27,9.13 346.67,6.08 119.4,-3.15 238.7,-14.25 357.8,-24.62 96.2,-8.38 192.1,-20.85 294.5,-32.21 -45.2,-65.32 -87.8,-124.41 -127.8,-185.18 -28.4,-43.23 -55.6,-87.26 -82.8,-131.3 0.4,-1.06 1,-2.03 1.4,-3.11 l 4.6,-13.32 c 1.9,2.6 3.7,5.29 5.6,7.88 64.6,87.01 131.1,172.61 193.2,261.33 34.8,49.82 73.7,57.41 129.8,40.12 56.3,-17.34 116.5,-21.55 174.3,-34.38 77.8,-17.26 155.3,-36.43 232.5,-56.37 67.8,-17.53 135.5,-35.97 202.6,-56.36 65.1,-19.78 129.3,-42.42 193.8,-64.12 17.7,-5.96 34.8,-13.63 52.5,-19.5 3.3,-1.07 5.5,-2.27 7.4,-3.53 h 43.5 0.1 c 29.7,0 55.2,-16.26 69.1,-40.18 45.4,-18.07 91.1,-35.61 135.9,-55.02 77.6,-33.6 154.8,-68.41 231.2,-104.77 67.6,-32.18 134.5,-65.82 200.4,-101.34 63.1,-33.98 124.5,-70.91 186.4,-107.13 34.9,-20.51 68.5,-43.47 104.1,-62.92 24.3,-13.33 29.7,-21.35 10.8,-48.38 -27.3,-39.21 -49.3,-83.73 -65.4,-128.89 -25.4,-71.17 -49.5,-143.7 -63.7,-217.67 -11.7,-61.54 -9.2,-125.96 -11.4,-189.16 -0.9,-24.56 -0.4,-48.9 0.8,-73.15 h 86.5 c -1.5,17.66 -2.6,35.33 -2.7,52.91 -0.9,129.5 5,258.76 45.2,383.58 19.2,59.57 39.6,118.76 61,182.57 43.8,-28.97 81.9,-52.87 118.7,-78.75 78.2,-55.11 156.5,-110.3 233.4,-167.3 48.9,-36.24 96.4,-74.59 142.7,-114.12 77,-65.76 152.7,-132.99 228.3,-200.41 6.6,-5.93 12.7,-18.69 11.1,-26.7 -17.7,-88.98 -35,-178.11 -56.3,-266.29 -26.9,-111.99 -56.9,-223.27 -86.4,-334.63 -24.3,-91.53 -48.4,-183.14 -75.2,-273.95 -17.8,-60.42 -40.2,-119.47 -60.4,-179.21 -9.5,-28.09 -18.2,-56.44 -27.9,-84.46 -3.8,-10.95 -9.2,-21.33 -15.3,-35.38 -20.9,9.67 -39.3,18.2 -57.7,26.74 -1.4,-2.37 -2.8,-4.74 -4.2,-7.1 17.7,-14.49 35.4,-28.98 56.9,-46.64 -37.6,-93.58 -74.2,-188.38 -113.8,-281.86 -38.1,-89.6 -76.5,-179.24 -120,-266.23 -41.3,-82.51 -89.3,-161.66 -134.6,-242.15 -12.4,-22.1 -24.8,-44.34 -39.3,-65.11 -4,-5.72 -15.9,-10.18 -23,-8.8 -140.9,27.49 -272.7,78.67 -395,153.93 -2.3,1.42 -5.6,1.26 -10.1,-1.29 115.5,-91.85 246.2,-155.88 388.6,-207.85 -30.1,-45.71 -56.6,-90.63 -87.7,-132.01 -56.8,-75.39 -114.2,-150.46 -175.4,-222.251 -46.5,-54.617 -99,-104.231 -149.4,-155.5 -20.6,-21 -41,-43.098 -64.9,-59.688 -13,-8.992 -33.6,-11.339 -50.2,-9.941 -50.1,4.25 -100.4,8.969 -149.6,18.711 -76.2,15.098 -152,33.348 -227.3,52.508 -45,11.441 -90.2,23.992 -133,41.64 -83.6,34.473 -167.7,68.723 -247.5,110.789 -79.6,41.962 -156.4,90.322 -230.4,141.612 -63.6,44.05 -124.1,93.46 -181.4,145.47 -66.9,60.68 -128.9,126.78 -193.1,190.38 -2.5,2.47 -6.5,3.43 -12.2,2.42 103.8,-136.44 222.4,-258.24 354.7,-367.02 133.6,-109.791 276.8,-204.041 433.1,-278.76 156.1,-74.68 319,-128 489.9,-161.77 -329.6,-242.64 -694.5,-357.57 -1105,-317.73 20.1,-5.219 40,-12.289 60.4,-15.281 44.1,-6.457 88.3,-13.137 132.7,-15.567 95.6,-5.242 191.2,-9.543 286.9,-10.703 37.4,-0.461 75.4,6.063 112.3,13.699 77.8,16.133 157.5,28.223 231.9,54.692 86.1,30.621 174.8,58.371 250.7,113.492 28.6,20.809 61.8,35.219 91.4,54.867 41.1,27.25 79.9,57.762 121.2,84.602 14.2,9.25 33.1,16.961 49.5,16.418 216.4,-7.18 425.7,33.34 628.9,102.269 88.7,30.102 171.5,78.41 255.2,122 48.8,25.41 94.3,57.211 140.5,87.321 29.8,19.402 58.1,40.953 90.8,58.311 -30.9,-33.972 -59.9,-69.929 -93.1,-101.499 -76.9,-73.293 -154.8,-145.769 -234.6,-215.922 -39.9,-35.039 -84.6,-64.75 -127.7,-95.949 -47.9,-34.602 -96.1,-68.68 -144.9,-101.918 -26.2,-17.812 -52.9,-35.223 -81,-49.633 -101.1,-51.871 -201.9,-104.66 -304.9,-152.578 -62.7,-29.121 -129.3,-49.512 -193.9,-74.539 -192.1,-74.492 -393.1,-111.641 -596.1,-138.6015 -85.3,-11.3282 -171.6,-17.9492 -257.6,-20.3789 -89.8,-2.543 -180.3,-2.3399 -269.7,5.4765 -115.9,10.1407 -231.5,25.9219 -346.3,45.2309 -71.4,12.031 -141.1,35.191 -211.6,53 -6.2,1.562 -13,0.492 -20.1,-3.09 234.5,-87.1096 477.6,-138.5706 726.1,-154.60962 749.8,-48.39848 1430.5,149.37062 2018.2,618.66062 692.2,552.71 1066.4,1281.73 1105.6,2167.1 34.7,782.1 -215.7,1475.44 -740.8,2056.57"
         style="fill:#100f0d;fill-opacity:1;fill-rule:nonzero;stroke:none"
         id="path68"
         inkscape:connector-curvature="0" /><path
         d="m 12772.7,2906.19 c -0.7,1.74 -1.5,3.47 -2.2,5.21 h -65.1 c 0.9,-1.74 1.7,-3.47 2.5,-5.21 h 64.8"
         style="fill:#100f0d;fill-opacity:1;fill-rule:nonzero;stroke:none"
         id="path70"
         inkscape:connector-curvature="0" /></g></g></svg>