<?xml version="1.0" encoding="UTF-8" standalone="no"?>
<!-- Svg Vector Icons : http://www.onlinewebfonts.com/icon -->

<svg
   xmlns:dc="http://purl.org/dc/elements/1.1/"
   xmlns:cc="http://creativecommons.org/ns#"
   xmlns:rdf="http://www.w3.org/1999/02/22-rdf-syntax-ns#"
   xmlns:svg="http://www.w3.org/2000/svg"
   xmlns="http://www.w3.org/2000/svg"
   xmlns:sodipodi="http://sodipodi.sourceforge.net/DTD/sodipodi-0.dtd"
   xmlns:inkscape="http://www.inkscape.org/namespaces/inkscape"
   version="1.1"
   x="0px"
   y="0px"
   viewBox="0 0 1000 1000"
   enable-background="new 0 0 1000 1000"
   xml:space="preserve"
   id="svg2796"
   sodipodi:docname="menu.svg"
   inkscape:version="0.92.3 (2405546, 2018-03-11)">
   
   <defs
   id="defs2800" /><sodipodi:namedview
   pagecolor="#ffffff"
   bordercolor="#666666"
   borderopacity="1"
   objecttolerance="10"
   gridtolerance="10"
   guidetolerance="10"
   inkscape:pageopacity="0"
   inkscape:pageshadow="2"
   inkscape:window-width="1825"
   inkscape:window-height="1265"
   id="namedview2798"
   showgrid="false"
   inkscape:zoom="0.236"
   inkscape:cx="500"
   inkscape:cy="500"
   inkscape:window-x="3326"
   inkscape:window-y="202"
   inkscape:window-maximized="0"
   inkscape:current-layer="g2794" />
<metadata
   id="metadata2786"> Svg Vector Icons : http://www.onlinewebfonts.com/icon <rdf:RDF><cc:Work
     rdf:about=""><dc:format>image/svg+xml</dc:format><dc:type
       rdf:resource="http://purl.org/dc/dcmitype/StillImage" /><dc:title></dc:title></cc:Work></rdf:RDF></metadata>
<g
   id="g2794"><path
     d="M990,210.3c0,38.7-31.3,70-70,70H80c-38.7,0-70-31.3-70-70l0,0c0-38.7,31.3-70,70-70H920C958.5,140.2,990,171.6,990,210.3L990,210.3L990,210.3z"
     id="path2788"
     style="fill:#ffffff;fill-opacity:1" /><path
     d="M713.4,500c0,38.7-31.3,70-70,70H80c-38.7,0-70-31.3-70-70l0,0c0-38.7,31.3-70,70-70l563.3,0C682,430,713.4,461.3,713.4,500L713.4,500L713.4,500z"
     id="path2790"
     style="fill:#ffffff;fill-opacity:1" /><path
     d="M503.4,789.7c0,38.7-31.3,70-70,70H80c-38.7,0-70-31.3-70-70l0,0c0-38.7,31.3-70,70-70h353.4C472.1,719.7,503.4,751.2,503.4,789.7L503.4,789.7L503.4,789.7z"
     id="path2792"
     style="fill:#ffffff;fill-opacity:1" /></g>
</svg>